<svg xmlns="http://www.w3.org/2000/svg" width="100" height="100" viewBox="0 0 100 100">
  <defs>
    <!-- Premium Purple Gradient -->
    <linearGradient id="mainGradient" x1="0%" y1="0%" x2="100%" y2="100%">
      <stop offset="0%" style="stop-color:#915eff;stop-opacity:1" />
      <stop offset="100%" style="stop-color:#5c2d91;stop-opacity:1" />
    </linearGradient>
    
    <!-- Deep Glow Effect -->
    <filter id="glow" x="-50%" y="-50%" width="200%" height="200%">
      <feGaussianBlur in="SourceGraphic" stdDeviation="2" result="blur"/>
      <feColorMatrix in="blur" type="matrix" values="
        1 0 0 0 0
        0 1 0 0 0
        0 0 1 0 0
        0 0 0 18 -7" result="glow"/>
      <feBlend in="SourceGraphic" in2="glow" mode="normal"/>
    </filter>
    
    <!-- Inner Shadow for Depth -->
    <filter id="innerShadow">
        <feOffset dx="1" dy="1"/>
        <feGaussianBlur stdDeviation="1" result="offset-blur"/>
        <feComposite operator="out" in="SourceGraphic" in2="offset-blur" result="inverse"/>
        <feFlood flood-color="black" flood-opacity="0.5" result="color"/>
        <feComposite operator="in" in="color" in2="inverse" result="shadow"/>
        <feComposite operator="over" in="shadow" in2="SourceGraphic"/>
    </filter>
  </defs>

  <!-- Hexagon Container Background -->
  <path d="M50 5 L90 28 L90 72 L50 95 L10 72 L10 28 Z" fill="none" stroke="url(#mainGradient)" stroke-width="4" filter="url(#glow)"/>

  <!-- Stylized D -->
  <path d="M30 35 L30 65 L45 65 Q55 65 55 50 Q55 35 45 35 Z M36 41 L45 41 Q49 41 49 50 Q49 59 45 59 L36 59 Z" fill="white" filter="url(#innerShadow)"/>

  <!-- Stylized G representing connection/depth -->
  <path d="M75 42 Q72 35 62 35 L61 35 Q50 35 50 50 Q50 65 61 65 L65 65 L65 55 L58 55 L58 52 L70 52 L70 68 L61 68 Q46 68 46 50 Q46 32 61 32 L62 32 Q75 32 78 40 Z" fill="url(#mainGradient)" filter="url(#innerShadow)"/>

</svg>
